/* XPM */
static char *dummy[]={
"16 16 65 2",
"Qt c None",
".o c #00467b",
".c c #005596",
".p c #008af8",
".# c #3fa6ff",
".y c #637aa7",
".1 c #667ea8",
".x c #6a82ac",
".0 c #7188b1",
".w c #7389b2",
".v c #7c92b8",
".Z c #7e93ba",
".J c #849abf",
".Y c #899ec1",
".I c #8ca0c3",
".R c #91a5c7",
"#. c #989891",
".6 c #9a9990",
".9 c #9a9a90",
".W c #9d9c8d",
".5 c #9e9b8d",
".T c #a19e8a",
".V c #a29e8a",
".P c #a6a087",
".S c #a6a187",
".L c #aaa385",
".O c #aba384",
".F c #b0a681",
".K c #b0a781",
".B c #b4aa7d",
".E c #b5aa7e",
".A c #b9ac7a",
".s c #beaf77",
".n c #c1b175",
".j c #c4b473",
".a c #c7b571",
".u c #c8d2e3",
".H c #ced7e6",
".m c #d4b268",
".i c #d5b269",
".h c #dabd7c",
".7 c #dce7f7",
".8 c #dde7f7",
".t c #dedac7",
".3 c #dee8f7",
".4 c #dee8f8",
".2 c #dfe8f7",
".X c #dfe9f8",
".l c #e0c88f",
".U c #e1eaf8",
".b c #e3ddc4",
".Q c #e4ecf9",
".M c #e6eef9",
".N c #e7eef9",
".G c #eaf0f9",
".C c #edf2fa",
".D c #eef2fa",
".z c #f0f4fb",
".q c #f3f5fb",
".r c #f3f6fb",
".k c #f6f8fb",
".e c #f7f9fb",
".g c #f8f9fb",
".f c #f8f9fc",
".d c #f9fafc",
"QtQtQtQtQtQtQtQtQtQtQtQtQtQtQtQt",
"QtQtQtQtQtQtQtQtQtQt.#QtQtQtQtQt",
"QtQtQt.a.a.a.a.a.b.#.cQtQtQtQtQt",
"QtQtQt.b.d.d.d.d.#.c.#.aQtQtQtQt",
"QtQtQt.#.e.f.g.#.c.#.h.i.jQtQtQt",
"QtQt.#.c.#.k.#.c.#.k.l.h.m.nQtQt",
"QtQtQt.#.o.p.o.#.q.r.r.r.r.sQtQt",
"QtQtQt.t.p.o.p.u.v.w.x.y.z.AQtQt",
"QtQtQt.B.C.p.D.C.C.C.C.C.C.EQtQt",
"QtQtQt.F.G.H.I.J.v.w.x.y.G.KQtQt",
"QtQtQt.L.M.N.N.N.N.N.N.M.N.OQtQt",
"QtQtQt.P.Q.R.I.J.v.w.x.y.Q.SQtQt",
"QtQtQt.T.U.U.U.U.U.U.U.U.U.VQtQt",
"QtQtQt.W.X.R.Y.Z.0.1.2.3.4.5QtQt",
"QtQtQt.6.7.7.8.7.8.7.8.8.7.9QtQt",
"QtQtQt#.#.#.#.#.#.#.#.#.#.#.QtQt"};
